<svg width="25" height="25" viewBox="0 0 25 25" fill="none" xmlns="http://www.w3.org/2000/svg">
<path opacity="0.4" d="M12.0773 2.04229C6.55453 2.02284 2.06164 6.48419 2.04218 12.007C2.02273 17.5298 6.48408 22.0227 12.0069 22.0422C17.5297 22.0616 22.0226 17.6003 22.0421 12.0775C22.0615 6.55464 17.6002 2.06175 12.0773 2.04229Z" fill="#667185"/>
<path d="M7.89561 11.1976L9.62764 10.6237C10.1082 10.4654 10.4795 10.0967 10.6412 9.61724L11.2273 7.88931C11.7225 6.40105 13.8224 6.43845 14.2772 7.93006L16.205 14.2169C16.5806 15.4682 15.4266 16.6141 14.1979 16.2298L7.91483 14.2577C6.4265 13.7824 6.4139 11.6824 7.89561 11.1976Z" fill="#667185"/>
</svg>
