<svg width="24" height="25" viewBox="0 0 24 25" fill="none" xmlns="http://www.w3.org/2000/svg">
<path opacity="0.3" d="M12 4.08398C18.928 4.08398 23.258 11.584 19.794 17.584C19.0041 18.9521 17.868 20.0882 16.4998 20.8782C15.1317 21.6681 13.5798 22.0839 12 22.084C5.07198 22.084 0.741979 14.584 4.20598 8.58398C4.99587 7.21585 6.13198 6.07973 7.50011 5.28981C8.86824 4.4999 10.4202 4.08402 12 4.08398Z" fill="#FFECE5"/>
<path d="M7.36582 3.05434C7.49843 3.28402 7.53436 3.55697 7.46572 3.81314C7.39708 4.06931 7.2295 4.28773 6.99982 4.42034C5.95953 5.02371 5.03535 5.80803 4.27082 6.73634C4.18883 6.84194 4.0865 6.93002 3.96988 6.99539C3.85326 7.06075 3.72472 7.10207 3.59186 7.11689C3.45899 7.13172 3.3245 7.11975 3.19634 7.0817C3.06818 7.04365 2.94895 6.98029 2.84571 6.89537C2.74246 6.81044 2.65729 6.70567 2.59523 6.58726C2.53317 6.46885 2.49548 6.3392 2.4844 6.20597C2.47332 6.07274 2.48906 5.93864 2.5307 5.8116C2.57234 5.68456 2.63903 5.56716 2.72682 5.46634C3.64146 4.35167 4.74951 3.41097 5.99782 2.68934C6.11153 2.62349 6.2371 2.58069 6.36736 2.56339C6.49762 2.54609 6.63001 2.55464 6.75697 2.58853C6.88392 2.62243 7.00295 2.68102 7.10725 2.76095C7.21155 2.84087 7.29908 2.94057 7.36482 3.05434H7.36582ZM17.9998 2.68934C19.2484 3.41058 20.3568 4.35094 21.2718 5.46534C21.4315 5.67098 21.5047 5.93078 21.4758 6.18952C21.4469 6.44826 21.3183 6.68554 21.1172 6.85093C20.9161 7.01631 20.6585 7.09676 20.3991 7.07518C20.1396 7.05359 19.8988 6.93168 19.7278 6.73534C18.9648 5.80586 18.0403 5.02164 16.9988 4.42034C16.7693 4.28747 16.6019 4.06885 16.5336 3.81258C16.4652 3.55631 16.5015 3.28339 16.6343 3.05384C16.7672 2.8243 16.9858 2.65694 17.2421 2.58858C17.4984 2.52022 17.7703 2.55647 17.9998 2.68934ZM11.9998 8.08334C11.7549 8.08337 11.5185 8.1733 11.3355 8.33606C11.1524 8.49882 11.0355 8.72309 11.0068 8.96634L10.9998 9.08334V13.0693C10.9968 13.2913 11.0678 13.5093 11.2018 13.6863L11.2918 13.7903L13.3978 15.8953C13.5774 16.0766 13.8194 16.1824 14.0744 16.191C14.3293 16.1997 14.578 16.1105 14.7694 15.9419C14.9608 15.7732 15.0805 15.5378 15.104 15.2837C15.1275 15.0297 15.053 14.7763 14.8958 14.5753L14.8118 14.4813L12.9998 12.6693V9.08334C12.9998 8.81812 12.8945 8.56377 12.7069 8.37623C12.5194 8.1887 12.265 8.08334 11.9998 8.08334Z" fill="#FFECE5"/>
</svg>
