<svg width="24" height="25" viewBox="0 0 24 25" fill="none" xmlns="http://www.w3.org/2000/svg">
<path d="M19 7.08447H5C4.73478 7.08447 4.48043 7.18983 4.29289 7.37737C4.10536 7.5649 4 7.81926 4 8.08447V21.0845C4 21.3497 4.10536 21.604 4.29289 21.7916C4.48043 21.9791 4.73478 22.0845 5 22.0845H19C19.2652 22.0845 19.5196 21.9791 19.7071 21.7916C19.8946 21.604 20 21.3497 20 21.0845V8.08447C20 7.81926 19.8946 7.5649 19.7071 7.37737C19.5196 7.18983 19.2652 7.08447 19 7.08447Z" stroke="#FFECE5" stroke-width="2" stroke-linecap="round" stroke-linejoin="round"/>
<path d="M8.5 9.08447V5.58447C8.5 5.12485 8.59053 4.66972 8.76642 4.24508C8.94231 3.82044 9.20012 3.4346 9.52513 3.1096C9.85013 2.78459 10.236 2.52679 10.6606 2.35089C11.0852 2.175 11.5404 2.08447 12 2.08447C12.4596 2.08447 12.9148 2.175 13.3394 2.35089C13.764 2.52679 14.1499 2.78459 14.4749 3.1096C14.7999 3.4346 15.0577 3.82044 15.2336 4.24508C15.4095 4.66972 15.5 5.12485 15.5 5.58447V9.08447" stroke="#FFECE5" stroke-width="2" stroke-linecap="round" stroke-linejoin="round"/>
</svg>
