<svg width="24" height="25" viewBox="0 0 24 25" fill="none" xmlns="http://www.w3.org/2000/svg">
<path d="M3 15.0844V16.5844H6.4395L1.5 21.5239L2.5605 22.5844L7.5 17.6448V21.0844H9V15.0844H3ZM22.5 3.08435H17.25V4.58435H19.9395L14.25 10.2739L11.0302 7.0541C10.8896 6.9135 10.6989 6.83451 10.5 6.83451C10.3011 6.83451 10.1104 6.9135 9.96975 7.0541L6 11.0239L7.0605 12.0844L10.5 8.64485L13.7197 11.8646C13.8604 12.0052 14.0511 12.0842 14.25 12.0842C14.4489 12.0842 14.6396 12.0052 14.7803 11.8646L21 5.64485V8.33435H22.5V3.08435ZM12 21.0844H22.5V22.5844H12V21.0844ZM1.5 1.58435H3V12.0844H1.5V1.58435Z" fill="#667185"/>
</svg>
