<svg width="40" height="40" viewBox="0 0 40 40" fill="none" xmlns="http://www.w3.org/2000/svg">
<g clip-path="url(#clip0_135_1692)">
<circle cx="20" cy="20" r="20" fill="#F8EFE6"/>
<path d="M16.25 16.3917V15.5833C16.25 13.7083 17.7583 11.8667 19.6333 11.6917C21.8667 11.475 23.75 13.2333 23.75 15.425V16.575" stroke="#D0965A" stroke-width="1.2" stroke-miterlimit="10" stroke-linecap="round" stroke-linejoin="round"/>
<path d="M17.5001 28.3334H22.5001C25.8501 28.3334 26.4501 26.9917 26.6251 25.3584L27.2501 20.3584C27.4751 18.3251 26.8918 16.6667 23.3334 16.6667H16.6668C13.1084 16.6667 12.5251 18.3251 12.7501 20.3584L13.3751 25.3584C13.5501 26.9917 14.1501 28.3334 17.5001 28.3334Z" stroke="#D0965A" stroke-width="1.2" stroke-miterlimit="10" stroke-linecap="round" stroke-linejoin="round"/>
<path d="M22.9128 19.9999H22.9203" stroke="#D0965A" stroke-width="1.2" stroke-linecap="round" stroke-linejoin="round"/>
<path d="M17.0788 19.9999H17.0863" stroke="#D0965A" stroke-width="1.2" stroke-linecap="round" stroke-linejoin="round"/>
</g>
<defs>
<clipPath id="clip0_135_1692">
<rect width="40" height="40" fill="white"/>
</clipPath>
</defs>
</svg>
