<svg width="20" height="20" viewBox="0 0 20 20" fill="none" xmlns="http://www.w3.org/2000/svg">
<path fill-rule="evenodd" clip-rule="evenodd" d="M6.6665 0.833252C7.12674 0.833252 7.49984 1.20635 7.49984 1.66659V2.49992H12.4998V1.66659C12.4998 1.20635 12.8729 0.833252 13.3332 0.833252C13.7934 0.833252 14.1665 1.20635 14.1665 1.66659V2.49992H14.9998C16.8408 2.49992 18.3332 3.9923 18.3332 5.83325V14.9999C18.3332 16.8409 16.8408 18.3333 14.9998 18.3333H4.99984C3.15889 18.3333 1.6665 16.8409 1.6665 14.9999V5.83325C1.6665 3.9923 3.15889 2.49992 4.99984 2.49992H5.83317V1.66659C5.83317 1.20635 6.20627 0.833252 6.6665 0.833252ZM12.4998 4.16659C12.4998 4.62682 12.8729 4.99992 13.3332 4.99992C13.7934 4.99992 14.1665 4.62682 14.1665 4.16659H14.9998C15.9203 4.16659 16.6665 4.91278 16.6665 5.83325V6.24992H3.33317V5.83325C3.33317 4.91278 4.07936 4.16659 4.99984 4.16659H5.83317C5.83317 4.62682 6.20627 4.99992 6.6665 4.99992C7.12674 4.99992 7.49984 4.62682 7.49984 4.16659H12.4998ZM16.6665 7.91659H3.33317V14.9999C3.33317 15.9204 4.07936 16.6666 4.99984 16.6666H14.9998C15.9203 16.6666 16.6665 15.9204 16.6665 14.9999V7.91659Z" fill="#344054"/>
</svg>
