<svg width="34" height="34" viewBox="0 0 34 34" fill="none" xmlns="http://www.w3.org/2000/svg">
<rect width="34" height="34" rx="17" fill="#F7F9FC"/>
<g clip-path="url(#clip0_135_1778)">
<path fill-rule="evenodd" clip-rule="evenodd" d="M20.764 9C21.3211 9.00002 21.8671 9.15513 22.341 9.44797C22.8148 9.7408 23.1978 10.1598 23.447 10.658L24.833 13.429C25.077 13.329 25.317 13.221 25.553 13.105C25.7904 12.9864 26.0651 12.967 26.3168 13.0511C26.5685 13.1351 26.7764 13.3156 26.895 13.553C27.0136 13.7904 27.033 14.0651 26.9489 14.3168C26.8649 14.5685 26.6844 14.7764 26.447 14.895C26.2066 15.002 25.9649 15.106 25.722 15.207L26.683 17.13C26.8916 17.547 27.0001 18.0068 27 18.473V21C27 21.4221 26.9109 21.8394 26.7386 22.2247C26.5663 22.61 26.3146 22.9546 26 23.236V24.5C26 24.8978 25.842 25.2794 25.5607 25.5607C25.2794 25.842 24.8978 26 24.5 26C24.1022 26 23.7206 25.842 23.4393 25.5607C23.158 25.2794 23 24.8978 23 24.5V24H11V24.5C11 24.8978 10.842 25.2794 10.5607 25.5607C10.2794 25.842 9.89782 26 9.5 26C9.10218 26 8.72064 25.842 8.43934 25.5607C8.15804 25.2794 8 24.8978 8 24.5V23.236C7.386 22.686 7 21.888 7 21V18.472C7.00019 18.0065 7.10872 17.5473 7.317 17.131L8.27 15.223C8.02867 15.1217 7.79033 15.0127 7.555 14.896C7.31883 14.7759 7.13931 14.5678 7.05513 14.3166C6.97096 14.0654 6.98887 13.7911 7.105 13.553C7.16366 13.4354 7.24491 13.3306 7.34412 13.2444C7.44332 13.1583 7.55853 13.0925 7.68316 13.0509C7.80779 13.0093 7.9394 12.9927 8.07046 13.0019C8.20153 13.0112 8.32948 13.0462 8.447 13.105C8.68367 13.2217 8.92367 13.3297 9.167 13.429L10.553 10.659C10.802 10.1606 11.185 9.74141 11.6588 9.44839C12.1327 9.15538 12.6788 9.00011 13.236 9H20.764ZM12.5 18C12.1022 18 11.7206 18.158 11.4393 18.4393C11.158 18.7206 11 19.1022 11 19.5C11 19.8978 11.158 20.2794 11.4393 20.5607C11.7206 20.842 12.1022 21 12.5 21C12.8978 21 13.2794 20.842 13.5607 20.5607C13.842 20.2794 14 19.8978 14 19.5C14 19.1022 13.842 18.7206 13.5607 18.4393C13.2794 18.158 12.8978 18 12.5 18ZM21.5 18C21.1022 18 20.7206 18.158 20.4393 18.4393C20.158 18.7206 20 19.1022 20 19.5C20 19.8978 20.158 20.2794 20.4393 20.5607C20.7206 20.842 21.1022 21 21.5 21C21.8978 21 22.2794 20.842 22.5607 20.5607C22.842 20.2794 23 19.8978 23 19.5C23 19.1022 22.842 18.7206 22.5607 18.4393C22.2794 18.158 21.8978 18 21.5 18ZM20.764 11H13.236C13.0714 11 12.9094 11.0406 12.7642 11.1182C12.6191 11.1958 12.4953 11.3081 12.404 11.445L12.342 11.553L11.072 14.091C12.62 14.555 14.706 15 17 15C19.142 15 21.101 14.612 22.61 14.183L22.927 14.091L21.658 11.553C21.5844 11.4058 21.4756 11.2791 21.3413 11.184C21.207 11.0889 21.0513 11.0285 20.888 11.008L20.765 11H20.764Z" fill="#711E00"/>
</g>
<defs>
<clipPath id="clip0_135_1778">
<rect width="24" height="24" fill="white" transform="translate(5 5)"/>
</clipPath>
</defs>
</svg>
