<svg width="21" height="20" viewBox="0 0 21 20" fill="none" xmlns="http://www.w3.org/2000/svg">
<mask id="mask0_12_20848" style="mask-type:alpha" maskUnits="userSpaceOnUse" x="0" y="0" width="21" height="20">
<rect x="0.333496" width="20" height="20" fill="#D9D9D9"/>
</mask>
<g mask="url(#mask0_12_20848)">
<path d="M9.11323 13.8882L15.0636 7.93783L13.9245 6.80771L9.11323 11.619L6.70471 9.21048L5.57956 10.3406L9.11323 13.8882ZM10.3336 18.4724C9.16767 18.4724 8.06946 18.2505 7.03902 17.8066C6.00856 17.3627 5.10977 16.7573 4.34264 15.9901C3.57552 15.223 2.97003 14.3244 2.52616 13.2942C2.08229 12.2641 1.86035 11.166 1.86035 10C1.86035 8.82482 2.08229 7.72198 2.52616 6.69152C2.97003 5.66106 3.57534 4.76453 4.34212 4.00192C5.1089 3.23931 6.00744 2.63558 7.03775 2.19073C8.06807 1.74587 9.1663 1.52344 10.3325 1.52344C11.5079 1.52344 12.6109 1.74578 13.6416 2.19046C14.6724 2.63515 15.5689 3.23866 16.3314 4.00098C17.0938 4.76328 17.6974 5.65972 18.1422 6.69027C18.5869 7.72081 18.8093 8.82392 18.8093 9.99958C18.8093 11.1659 18.5869 12.2642 18.142 13.2946C17.6972 14.325 17.0935 15.2237 16.3309 15.9905C15.5682 16.7574 14.6719 17.3627 13.6417 17.8066C12.6116 18.2505 11.5089 18.4724 10.3336 18.4724ZM10.3332 16.8942C12.2551 16.8942 13.8847 16.224 15.2219 14.8835C16.5592 13.543 17.2278 11.915 17.2278 9.99958C17.2278 8.07768 16.5592 6.4481 15.2219 5.11083C13.8847 3.77358 12.2545 3.10496 10.3315 3.10496C8.41777 3.10496 6.7905 3.77358 5.44973 5.11083C4.10895 6.4481 3.43856 8.07824 3.43856 10.0012C3.43856 11.915 4.10881 13.5423 5.44931 14.883C6.7898 16.2238 8.41775 16.8942 10.3332 16.8942Z" fill="#FF915B"/>
</g>
</svg>
