<svg width="16" height="16" viewBox="0 0 16 16" fill="none" xmlns="http://www.w3.org/2000/svg">
<g clip-path="url(#clip0_249_2512)">
<path d="M8.00004 1.3335C11.682 1.3335 14.6667 4.31816 14.6667 8.00016C14.6667 11.6822 11.682 14.6668 8.00004 14.6668C4.31804 14.6668 1.33337 11.6822 1.33337 8.00016C1.33337 4.31816 4.31804 1.3335 8.00004 1.3335ZM8.00004 4.00016C7.82323 4.00016 7.65366 4.0704 7.52864 4.19543C7.40361 4.32045 7.33337 4.49002 7.33337 4.66683V8.00016C7.33341 8.17696 7.40367 8.3465 7.52871 8.4715L9.52871 10.4715C9.65444 10.5929 9.82284 10.6601 9.99764 10.6586C10.1724 10.6571 10.3396 10.587 10.4633 10.4634C10.5869 10.3398 10.657 10.1726 10.6585 9.99776C10.66 9.82297 10.5928 9.65456 10.4714 9.52883L8.66671 7.72416V4.66683C8.66671 4.49002 8.59647 4.32045 8.47145 4.19543C8.34642 4.0704 8.17685 4.00016 8.00004 4.00016Z" fill="#711E00"/>
</g>
<defs>
<clipPath id="clip0_249_2512">
<rect width="16" height="16" fill="white"/>
</clipPath>
</defs>
</svg>
