<svg width="24" height="25" viewBox="0 0 24 25" fill="none" xmlns="http://www.w3.org/2000/svg">
<path opacity="0.3" d="M12 4.08435C18.928 4.08435 23.258 11.5844 19.794 17.5844C19.0041 18.9525 17.868 20.0886 16.4998 20.8785C15.1317 21.6684 13.5798 22.0843 12 22.0844C5.07198 22.0844 0.741979 14.5844 4.20598 8.58435C4.99587 7.21621 6.13198 6.08009 7.50011 5.29018C8.86824 4.50027 10.4202 4.08439 12 4.08435Z" fill="#667185"/>
<path d="M7.36607 3.05532C7.49867 3.285 7.5346 3.55794 7.46597 3.81412C7.39733 4.07029 7.22974 4.28871 7.00007 4.42132C5.95977 5.02469 5.0356 5.809 4.27107 6.73732C4.18908 6.84291 4.08675 6.931 3.97013 6.99636C3.85351 7.06173 3.72497 7.10304 3.5921 7.11787C3.45924 7.1327 3.32475 7.12073 3.19659 7.08268C3.06843 7.04463 2.9492 6.98127 2.84595 6.89634C2.7427 6.81142 2.65753 6.70665 2.59547 6.58824C2.53341 6.46983 2.49573 6.34017 2.48464 6.20694C2.47356 6.07371 2.4893 5.93962 2.53094 5.81258C2.57258 5.68554 2.63927 5.56814 2.72707 5.46732C3.64171 4.35265 4.74975 3.41195 5.99807 2.69032C6.11178 2.62446 6.23735 2.58166 6.36761 2.56437C6.49787 2.54707 6.63026 2.55561 6.75721 2.58951C6.88417 2.62341 7.0032 2.682 7.1075 2.76192C7.2118 2.84185 7.29932 2.94155 7.36507 3.05532H7.36607ZM18.0001 2.69032C19.2487 3.41155 20.357 4.35192 21.2721 5.46632C21.4317 5.67196 21.5049 5.93176 21.476 6.1905C21.4472 6.44924 21.3185 6.68652 21.1175 6.8519C20.9164 7.01729 20.6587 7.09774 20.3993 7.07615C20.1398 7.05457 19.899 6.93265 19.7281 6.73632C18.965 5.80684 18.0405 5.02261 16.9991 4.42132C16.7695 4.28844 16.6022 4.06983 16.5338 3.81356C16.4654 3.55729 16.5017 3.28436 16.6346 3.05482C16.7674 2.82527 16.9861 2.65791 17.2423 2.58956C17.4986 2.5212 17.7705 2.55744 18.0001 2.69032ZM12.0001 8.08432C11.7551 8.08435 11.5187 8.17427 11.3357 8.33703C11.1527 8.49979 11.0357 8.72407 11.0071 8.96732L11.0001 9.08432V13.0703C10.9971 13.2923 11.0681 13.5103 11.2021 13.6873L11.2921 13.7913L13.3981 15.8963C13.5776 16.0776 13.8196 16.1834 14.0746 16.192C14.3296 16.2007 14.5782 16.1115 14.7696 15.9429C14.9611 15.7742 15.0808 15.5387 15.1043 15.2847C15.1278 15.0307 15.0533 14.7772 14.8961 14.5763L14.8121 14.4823L13.0001 12.6703V9.08432C13.0001 8.8191 12.8947 8.56475 12.7072 8.37721C12.5196 8.18967 12.2653 8.08432 12.0001 8.08432Z" fill="#667185"/>
</svg>
