<svg width="16" height="16" viewBox="0 0 16 16" fill="none" xmlns="http://www.w3.org/2000/svg">
<path d="M9 2.66675C9 3.21903 8.55228 3.66675 8 3.66675C7.44772 3.66675 7 3.21903 7 2.66675C7 2.11446 7.44772 1.66675 8 1.66675C8.55228 1.66675 9 2.11446 9 2.66675Z" fill="black"/>
<path d="M9 8.00008C9 8.55237 8.55228 9.00008 8 9.00008C7.44772 9.00008 7 8.55237 7 8.00008C7 7.4478 7.44772 7.00008 8 7.00008C8.55228 7.00008 9 7.4478 9 8.00008Z" fill="black"/>
<path d="M8 14.3334C8.55228 14.3334 9 13.8857 9 13.3334C9 12.7811 8.55228 12.3334 8 12.3334C7.44772 12.3334 7 12.7811 7 13.3334C7 13.8857 7.44772 14.3334 8 14.3334Z" fill="black"/>
</svg>
