<svg width="20" height="20" viewBox="0 0 20 20" fill="none" xmlns="http://www.w3.org/2000/svg">
<path d="M13.9227 11.4278L10.5893 14.7611C10.2639 15.0866 9.73626 15.0866 9.41083 14.7611L6.07749 11.4278C5.75206 11.1024 5.75206 10.5747 6.07749 10.2493C6.40293 9.92385 6.93057 9.92385 7.256 10.2493L9.16675 12.16V2.50521C9.16675 2.04497 9.53984 1.67188 10.0001 1.67188C10.4603 1.67188 10.8334 2.04497 10.8334 2.50521V12.16L12.7442 10.2493C13.0696 9.92385 13.5972 9.92385 13.9227 10.2493C14.2481 10.5747 14.2481 11.1024 13.9227 11.4278Z" fill="#344054"/>
<path d="M3.33341 14.5885C3.33341 14.1283 2.96032 13.7552 2.50008 13.7552C2.03984 13.7552 1.66675 14.1283 1.66675 14.5885V15.8385C1.66675 17.6795 3.15913 19.1719 5.00008 19.1719H15.0001C16.841 19.1719 18.3334 17.6795 18.3334 15.8385V14.5885C18.3334 14.1283 17.9603 13.7552 17.5001 13.7552C17.0398 13.7552 16.6667 14.1283 16.6667 14.5885V15.8385C16.6667 16.759 15.9206 17.5052 15.0001 17.5052H5.00008C4.07961 17.5052 3.33341 16.759 3.33341 15.8385V14.5885Z" fill="#344054"/>
</svg>
