<svg width="100" height="97" viewBox="0 0 100 97" fill="none" xmlns="http://www.w3.org/2000/svg">
<path d="M20 80L4.25 95.75C3.41667 96.5833 2.5 96.7917 1.5 96.375C0.5 95.9583 0 95.1667 0 94V10C0 7.25 0.979167 4.89583 2.9375 2.9375C4.89583 0.979167 7.25 0 10 0H90C92.75 0 95.1042 0.979167 97.0625 2.9375C99.0208 4.89583 100 7.25 100 10V70C100 72.75 99.0208 75.1042 97.0625 77.0625C95.1042 79.0208 92.75 80 90 80H20ZM50 52.375L59.5 58.125C60.4167 58.7083 61.3333 58.6875 62.25 58.0625C63.1667 57.4375 63.5 56.5833 63.25 55.5L60.75 44.625L69.25 37.25C70.0833 36.5 70.3333 35.6042 70 34.5625C69.6667 33.5208 68.9167 32.9583 67.75 32.875L56.625 32L52.25 21.75C51.8333 20.75 51.0833 20.25 50 20.25C48.9167 20.25 48.1667 20.75 47.75 21.75L43.375 32L32.25 32.875C31.0833 32.9583 30.3333 33.5208 30 34.5625C29.6667 35.6042 29.9167 36.5 30.75 37.25L39.25 44.625L36.75 55.5C36.5 56.5833 36.8333 57.4375 37.75 58.0625C38.6667 58.6875 39.5833 58.7083 40.5 58.125L50 52.375Z" fill="#8F2802"/>
</svg>
