<svg width="24" height="25" viewBox="0 0 24 25" fill="none" xmlns="http://www.w3.org/2000/svg">
<path d="M12.6004 14.4844C13.0778 14.4844 13.5356 14.674 13.8732 15.0116C14.2107 15.3491 14.4004 15.807 14.4004 16.2844V16.8844C14.4004 19.2496 12.1684 21.6844 8.40039 21.6844C4.63239 21.6844 2.40039 19.2496 2.40039 16.8844V16.2844C2.40039 15.807 2.59003 15.3491 2.9276 15.0116C3.26516 14.674 3.723 14.4844 4.20039 14.4844H12.6004ZM12.6004 15.6844H4.20039C4.04126 15.6844 3.88865 15.7476 3.77613 15.8601C3.6636 15.9726 3.60039 16.1252 3.60039 16.2844V16.8844C3.60039 18.61 5.31879 20.4844 8.40039 20.4844C11.482 20.4844 13.2004 18.61 13.2004 16.8844V16.2844C13.2004 16.1252 13.1372 15.9726 13.0247 15.8601C12.9121 15.7476 12.7595 15.6844 12.6004 15.6844ZM8.40039 6.68438C9.27561 6.68438 10.115 7.03205 10.7338 7.65092C11.3527 8.26979 11.7004 9.10916 11.7004 9.98438C11.7004 10.8596 11.3527 11.699 10.7338 12.3178C10.115 12.9367 9.27561 13.2844 8.40039 13.2844C7.52518 13.2844 6.68581 12.9367 6.06694 12.3178C5.44807 11.699 5.10039 10.8596 5.10039 9.98438C5.10039 9.10916 5.44807 8.26979 6.06694 7.65092C6.68581 7.03205 7.52518 6.68438 8.40039 6.68438ZM19.2004 2.48438C19.8057 2.48449 20.3886 2.7133 20.8323 3.12498C21.276 3.53666 21.5478 4.1008 21.5932 4.70438L21.6004 4.88438V7.28438C21.6006 7.88987 21.3719 8.47306 20.9602 8.91703C20.5485 9.36101 19.9842 9.63296 19.3804 9.67838L19.2004 9.68438H17.3992L15.9616 11.6044C15.3256 12.4516 14.0368 12.1084 13.8292 11.1532L13.8088 11.02L13.8004 10.8844V9.60638L13.7068 9.58238C13.2752 9.45208 12.8891 9.20288 12.5926 8.86331C12.2962 8.52375 12.1013 8.10755 12.0304 7.66238L12.0064 7.46318L12.0004 7.28438V4.88438C12.0002 4.27888 12.2289 3.6957 12.6406 3.25172C13.0523 2.80774 13.6166 2.53579 14.2204 2.49038L14.4004 2.48438H19.2004ZM8.40039 7.88438C8.12461 7.88438 7.85154 7.93869 7.59676 8.04423C7.34197 8.14976 7.11047 8.30445 6.91547 8.49945C6.72046 8.69445 6.56578 8.92596 6.46024 9.18074C6.35471 9.43552 6.30039 9.7086 6.30039 9.98438C6.30039 10.2602 6.35471 10.5332 6.46024 10.788C6.56578 11.0428 6.72046 11.2743 6.91547 11.4693C7.11047 11.6643 7.34197 11.819 7.59676 11.9245C7.85154 12.0301 8.12461 12.0844 8.40039 12.0844C8.95735 12.0844 9.49149 11.8631 9.88532 11.4693C10.2791 11.0755 10.5004 10.5413 10.5004 9.98438C10.5004 9.42742 10.2791 8.89328 9.88532 8.49945C9.49149 8.10562 8.95735 7.88438 8.40039 7.88438ZM19.2004 3.68438H14.4004C14.1065 3.68441 13.8228 3.79232 13.6031 3.98763C13.3835 4.18294 13.2432 4.45207 13.2088 4.74397L13.2004 4.88438V7.28438C13.2004 7.5783 13.3083 7.86198 13.5036 8.08162C13.699 8.30126 13.9681 8.44159 14.26 8.47598L14.4004 8.48438H15.0004V10.8844L16.8004 8.48438H19.2004C19.4943 8.48434 19.778 8.37643 19.9976 8.18112C20.2173 7.98581 20.3576 7.71668 20.392 7.42478L20.4004 7.28438V4.88438C20.4004 4.59046 20.2924 4.30677 20.0971 4.08713C19.9018 3.86749 19.6327 3.72716 19.3408 3.69278L19.2004 3.68438Z" fill="#667185"/>
</svg>
