<svg width="20" height="20" viewBox="0 0 20 20" fill="none" xmlns="http://www.w3.org/2000/svg">
<path d="M3.33325 5.00521C3.33325 4.54497 3.70635 4.17188 4.16659 4.17188H15.8333C16.2935 4.17188 16.6666 4.54497 16.6666 5.00521C16.6666 5.46545 16.2935 5.83854 15.8333 5.83854H4.16659C3.70635 5.83854 3.33325 5.46545 3.33325 5.00521Z" fill="#344054"/>
<path d="M4.99992 10.0052C4.99992 9.54497 5.37301 9.17188 5.83325 9.17188H14.1666C14.6268 9.17188 14.9999 9.54497 14.9999 10.0052C14.9999 10.4654 14.6268 10.8385 14.1666 10.8385H5.83325C5.37301 10.8385 4.99992 10.4654 4.99992 10.0052Z" fill="#344054"/>
<path d="M7.49992 14.1719C7.03968 14.1719 6.66659 14.545 6.66659 15.0052C6.66659 15.4654 7.03968 15.8385 7.49992 15.8385H12.4999C12.9602 15.8385 13.3333 15.4654 13.3333 15.0052C13.3333 14.545 12.9602 14.1719 12.4999 14.1719H7.49992Z" fill="#344054"/>
</svg>
