<svg width="9" height="14" viewBox="0 0 9 14" fill="none" xmlns="http://www.w3.org/2000/svg">
<path d="M3.6499 7.00503L8.0374 11.3925C8.24365 11.5988 8.34678 11.8613 8.34678 12.18C8.34678 12.4988 8.24365 12.7613 8.0374 12.9675C7.83115 13.1738 7.56865 13.2769 7.2499 13.2769C6.93115 13.2769 6.66865 13.1738 6.4624 12.9675L1.2874 7.79253C1.1749 7.68003 1.09521 7.55815 1.04834 7.4269C1.00146 7.29565 0.978027 7.15503 0.978027 7.00503C0.978027 6.85503 1.00146 6.7144 1.04834 6.58315C1.09521 6.4519 1.1749 6.33003 1.2874 6.21753L6.4624 1.04253C6.66865 0.836279 6.93115 0.733154 7.2499 0.733154C7.56865 0.733154 7.83115 0.836279 8.0374 1.04253C8.24365 1.24878 8.34678 1.51128 8.34678 1.83003C8.34678 2.14878 8.24365 2.41128 8.0374 2.61753L3.6499 7.00503Z" fill="#667185"/>
</svg>
