<svg width="9" height="14" viewBox="0 0 9 14" fill="none" xmlns="http://www.w3.org/2000/svg">
<path d="M5.6749 7.00503L1.2874 2.61753C1.08115 2.41128 0.978027 2.14878 0.978027 1.83003C0.978027 1.51128 1.08115 1.24878 1.2874 1.04253C1.49365 0.836279 1.75615 0.733154 2.0749 0.733154C2.39365 0.733154 2.65615 0.836279 2.8624 1.04253L8.0374 6.21753C8.1499 6.33003 8.22959 6.4519 8.27646 6.58315C8.32334 6.7144 8.34678 6.85503 8.34678 7.00503C8.34678 7.15503 8.32334 7.29565 8.27646 7.4269C8.22959 7.55815 8.1499 7.68003 8.0374 7.79253L2.8624 12.9675C2.65615 13.1738 2.39365 13.2769 2.0749 13.2769C1.75615 13.2769 1.49365 13.1738 1.2874 12.9675C1.08115 12.7613 0.978027 12.4988 0.978027 12.18C0.978027 11.8613 1.08115 11.5988 1.2874 11.3925L5.6749 7.00503Z" fill="#667185"/>
</svg>
