<svg width="30" height="31" viewBox="0 0 30 31" fill="none" xmlns="http://www.w3.org/2000/svg">
<rect y="0.5" width="30" height="30" rx="15" fill="#711E00"/>
<path d="M16.156 22.044C17.899 20.51 21 17.376 21 14.5C21 12.9087 20.3679 11.3826 19.2426 10.2574C18.1174 9.13214 16.5913 8.5 15 8.5C13.4087 8.5 11.8826 9.13214 10.7574 10.2574C9.63214 11.3826 9 12.9087 9 14.5C9 17.376 12.1 20.51 13.844 22.044C14.1621 22.3279 14.5736 22.4849 15 22.4849C15.4264 22.4849 15.8379 22.3279 16.156 22.044ZM13 14.5C13 13.9696 13.2107 13.4609 13.5858 13.0858C13.9609 12.7107 14.4696 12.5 15 12.5C15.5304 12.5 16.0391 12.7107 16.4142 13.0858C16.7893 13.4609 17 13.9696 17 14.5C17 15.0304 16.7893 15.5391 16.4142 15.9142C16.0391 16.2893 15.5304 16.5 15 16.5C14.4696 16.5 13.9609 16.2893 13.5858 15.9142C13.2107 15.5391 13 15.0304 13 14.5Z" fill="white"/>
</svg>
