<svg width="24" height="25" viewBox="0 0 24 25" fill="none" xmlns="http://www.w3.org/2000/svg">
<path d="M19 7.08435H5C4.73478 7.08435 4.48043 7.18971 4.29289 7.37724C4.10536 7.56478 4 7.81913 4 8.08435V21.0844C4 21.3496 4.10536 21.6039 4.29289 21.7915C4.48043 21.979 4.73478 22.0844 5 22.0844H19C19.2652 22.0844 19.5196 21.979 19.7071 21.7915C19.8946 21.6039 20 21.3496 20 21.0844V8.08435C20 7.81913 19.8946 7.56478 19.7071 7.37724C19.5196 7.18971 19.2652 7.08435 19 7.08435Z" stroke="#667185" stroke-width="2" stroke-linecap="round" stroke-linejoin="round"/>
<path d="M8.5 9.08435V5.58435C8.5 5.12472 8.59053 4.6696 8.76642 4.24496C8.94231 3.82032 9.20012 3.43448 9.52513 3.10948C9.85013 2.78447 10.236 2.52666 10.6606 2.35077C11.0852 2.17488 11.5404 2.08435 12 2.08435C12.4596 2.08435 12.9148 2.17488 13.3394 2.35077C13.764 2.52666 14.1499 2.78447 14.4749 3.10948C14.7999 3.43448 15.0577 3.82032 15.2336 4.24496C15.4095 4.6696 15.5 5.12472 15.5 5.58435V9.08435" stroke="#667185" stroke-width="2" stroke-linecap="round" stroke-linejoin="round"/>
</svg>
