<svg width="16" height="16" viewBox="0 0 16 16" fill="none" xmlns="http://www.w3.org/2000/svg">
<path d="M5.14592 10.2629C5.33394 10.7981 5.63362 11.2479 6.04496 11.6122C6.45628 11.9765 6.92529 12.2298 7.452 12.3719V12.8126C7.452 12.9643 7.50541 13.0901 7.61225 13.19C7.71908 13.2898 7.84835 13.3398 8.00006 13.3398C8.15177 13.3398 8.27757 13.2864 8.37746 13.1795C8.47735 13.0727 8.52729 12.9434 8.52729 12.7917V12.3927C9.15976 12.319 9.71024 12.0553 10.1787 11.6018C10.6472 11.1483 10.8815 10.6144 10.8815 10.0001C10.8815 9.37506 10.6851 8.85904 10.2925 8.452C9.89989 8.04494 9.30775 7.69558 8.51608 7.40392C7.62611 7.07698 7.06173 6.80054 6.82296 6.57458C6.58418 6.34862 6.46479 6.04601 6.46479 5.66673C6.46479 5.35689 6.60502 5.09301 6.88548 4.87506C7.16592 4.6571 7.51662 4.54812 7.93756 4.54812C8.31577 4.54812 8.65872 4.63653 8.96642 4.81335C9.27411 4.99017 9.49259 5.23296 9.62185 5.54171L10.5465 5.1491C10.3585 4.73351 10.0884 4.39216 9.73641 4.12506C9.38439 3.85798 8.98135 3.68544 8.52729 3.60744V3.18756C8.52729 3.03585 8.47735 2.91005 8.37746 2.81017C8.27757 2.71028 8.15177 2.66033 8.00006 2.66033C7.84835 2.66033 7.72255 2.71028 7.62266 2.81017C7.52278 2.91005 7.47283 3.03585 7.47283 3.18756V3.62827C6.8318 3.75113 6.3278 4.00113 5.96081 4.37827C5.59382 4.75541 5.41033 5.19184 5.41033 5.68756C5.41033 6.28585 5.6208 6.79306 6.04175 7.20919C6.46268 7.62533 7.15018 8.00113 8.10425 8.3366C8.73993 8.56416 9.19212 8.80694 9.46081 9.06496C9.72951 9.32297 9.86385 9.63467 9.86385 10.0001C9.86385 10.4253 9.69264 10.7701 9.35023 11.0345C9.00781 11.299 8.61464 11.4312 8.17073 11.4312C7.69905 11.4312 7.27811 11.2797 6.90791 10.9768C6.53772 10.674 6.2741 10.2928 6.11704 9.83342L5.14592 10.2629ZM8.00146 15.5834C6.96207 15.5834 5.98148 15.386 5.05971 14.9913C4.13792 14.5966 3.3311 14.0534 2.63925 13.3619C1.94739 12.6704 1.40401 11.8639 1.0091 10.9426C0.6142 10.0212 0.416748 9.04085 0.416748 8.00146C0.416748 6.94818 0.614109 5.96412 1.00883 5.04929C1.40355 4.13444 1.94668 3.3311 2.63821 2.63925C3.32975 1.94739 4.1362 1.40401 5.05756 1.0091C5.97891 0.6142 6.95928 0.416748 7.99866 0.416748C9.05194 0.416748 10.036 0.61411 10.9508 1.00883C11.8657 1.40355 12.669 1.94668 13.3609 2.63821C14.0527 3.32975 14.5961 4.13273 14.991 5.04714C15.3859 5.96155 15.5834 6.94539 15.5834 7.99867C15.5834 9.03805 15.386 10.0186 14.9913 10.9404C14.5966 11.8622 14.0534 12.669 13.3619 13.3609C12.6704 14.0527 11.8674 14.5961 10.953 14.991C10.0386 15.3859 9.05473 15.5834 8.00146 15.5834ZM8.00006 14.5001C9.80562 14.5001 11.3403 13.8681 12.6042 12.6042C13.8681 11.3403 14.5001 9.80562 14.5001 8.00006C14.5001 6.19451 13.8681 4.65978 12.6042 3.39589C11.3403 2.13201 9.80562 1.50006 8.00006 1.50006C6.1945 1.50006 4.65978 2.13201 3.39589 3.39589C2.132 4.65978 1.50006 6.19451 1.50006 8.00006C1.50006 9.80562 2.132 11.3403 3.39589 12.6042C4.65978 13.8681 6.1945 14.5001 8.00006 14.5001Z" fill="#12B76A"/>
</svg>
