<svg width="87" height="93" viewBox="0 0 87 93" fill="none" xmlns="http://www.w3.org/2000/svg">
<circle cx="42.42" cy="52.1761" r="40.4134" fill="#FDF2F2"/>
<circle cx="10.0719" cy="18.4403" r="2.53303" fill="#FDF2F2"/>
<circle cx="21.0158" cy="7.29389" r="4.72065" fill="#FDF2F2"/>
<circle cx="5.3456" cy="78.1974" r="4.49038" fill="#FDF2F2"/>
<circle cx="83.6451" cy="64.1722" r="1.26696" fill="#FDF2F2"/>
<path d="M22.1643 18.1039C22.0308 18.0755 22.0308 17.885 22.1643 17.8566L24.1828 17.4273C24.2315 17.417 24.2695 17.3791 24.2801 17.3305L24.7147 15.3262C24.7435 15.1933 24.933 15.1933 24.9618 15.3262L25.3964 17.3305C25.4069 17.3791 25.445 17.417 25.4937 17.4273L27.5122 17.8566C27.6457 17.885 27.6457 18.0755 27.5122 18.1039L25.4937 18.5331C25.445 18.5435 25.4069 18.5814 25.3964 18.63L24.9618 20.6343C24.933 20.7672 24.7435 20.7672 24.7147 20.6343L24.2801 18.63C24.2695 18.5814 24.2315 18.5435 24.1828 18.5331L22.1643 18.1039Z" fill="#F77A4A"/>
<path d="M79.3366 76.0678C79.383 75.8488 79.6956 75.8488 79.742 76.0678L80.4344 79.3394C80.4513 79.4191 80.5134 79.4816 80.593 79.4989L83.8308 80.2043C84.0482 80.2516 84.0482 80.5617 83.8308 80.6091L80.593 81.3145C80.5134 81.3318 80.4513 81.3942 80.4344 81.474L79.742 84.7456C79.6956 84.9646 79.383 84.9646 79.3366 84.7456L78.6441 81.474C78.6272 81.3942 78.5652 81.3318 78.4855 81.3145L75.2477 80.6091C75.0303 80.5617 75.0303 80.2516 75.2477 80.2043L78.4855 79.4989C78.5652 79.4816 78.6272 79.4191 78.6441 79.3394L79.3366 76.0678Z" fill="#F77A4A"/>
<path d="M31.8648 32.667C31.9005 32.4983 32.1412 32.4983 32.1769 32.667L32.488 34.1366C32.501 34.198 32.5488 34.2461 32.6101 34.2594L34.0687 34.5772C34.2361 34.6137 34.2361 34.8524 34.0687 34.8889L32.6101 35.2067C32.5488 35.22 32.501 35.2681 32.488 35.3295L32.1769 36.7991C32.1412 36.9678 31.9005 36.9678 31.8648 36.7991L31.5537 35.3295C31.5407 35.2681 31.493 35.22 31.4316 35.2067L29.973 34.8889C29.8056 34.8524 29.8056 34.6137 29.973 34.5772L31.4316 34.2594C31.493 34.2461 31.5407 34.198 31.5537 34.1366L31.8648 32.667Z" fill="#F77A4A"/>
<path d="M29.4273 68.6507C34.612 67.1649 31.6249 68.2232 34.6429 67.087C36.9219 65.7466 39.2746 64.5123 42.0559 63.886C44.4187 63.3539 44.361 63.4208 46.9483 63.5481C48.1838 63.9283 49.2062 64.7576 49.3976 65.7311C49.5558 66.5354 47.9353 67.7251 46.9483 68.1637C43.2591 69.803 45.0577 68.9418 42.3615 69.6915C37.3542 71.0836 31.9654 73.4646 29.8618 77.1683C28.7201 79.1783 28.4434 81.5143 29.4419 83.3632C30.8399 85.9519 35.128 88.1041 39.3865 87.7327C41.0937 87.5838 43.0826 87.2595 44.7212 86.7523C46.4536 86.216 47.5883 85.8013 49.0837 84.9692C52.5526 83.0389 56.6869 80.531 60.0672 78.5217" stroke="#F77A4A" stroke-width="1.00431" stroke-linecap="round" stroke-dasharray="2.01 2.01"/>
<path d="M42.5712 30.8869C42.292 30.8585 41.957 30.8585 41.6499 30.8869C35.0057 30.6596 29.7295 25.1186 29.7295 18.299C29.7295 11.3372 35.257 5.68262 42.1245 5.68262C48.9641 5.68262 54.5195 11.3372 54.5195 18.299C54.4916 25.1186 49.2153 30.6596 42.5712 30.8869Z" fill="#F77A4A"/>
<path d="M56.8287 11.3662C62.2446 11.3662 66.5996 15.8274 66.5996 21.3115C66.5996 26.682 62.4121 31.0579 57.1917 31.2568C56.9683 31.2284 56.7171 31.2284 56.4658 31.2568" stroke="#F77A4A" stroke-width="1.79464" stroke-linecap="round" stroke-linejoin="round"/>
<path d="M28.6133 41.3726C21.8574 45.9759 21.8574 53.4775 28.6133 58.0523C36.2903 63.2807 48.8808 63.2807 56.5578 58.0523C63.3137 53.4491 63.3137 45.9475 56.5578 41.3726C48.9087 36.1727 36.3183 36.1727 28.6133 41.3726Z" fill="#F77A4A"/>
<path d="M62.2166 56.8304C64.2266 56.4041 66.1249 55.5801 67.6882 54.3582C72.0432 51.0337 72.0432 45.5495 67.6882 42.225C66.1528 41.0315 64.2824 40.2359 62.3003 39.7812" stroke="#F77A4A" stroke-width="1.79464" stroke-linecap="round" stroke-linejoin="round"/>
</svg>
