<svg width="20" height="20" viewBox="0 0 20 20" fill="none" xmlns="http://www.w3.org/2000/svg">
<path d="M10 8.76621C9.65833 8.76621 9.375 8.48288 9.375 8.14121V5.36621C9.375 5.02454 9.65833 4.74121 10 4.74121C10.3417 4.74121 10.625 5.02454 10.625 5.36621V8.14121C10.625 8.49121 10.3417 8.76621 10 8.76621Z" fill="#667185"/>
<path d="M10.0167 16.9582C7.86672 16.9582 5.72505 16.6165 3.68339 15.9332C2.92505 15.6832 2.35005 15.1415 2.10005 14.4582C1.85005 13.7749 1.93339 12.9915 2.34172 12.3082L3.40005 10.5415C3.63339 10.1499 3.84172 9.41654 3.84172 8.9582V7.2082C3.84172 3.79987 6.60839 1.0332 10.0167 1.0332C13.4251 1.0332 16.1917 3.79987 16.1917 7.2082V8.9582C16.1917 9.4082 16.4001 10.1499 16.6334 10.5415L17.6917 12.3082C18.0834 12.9582 18.1501 13.7332 17.8917 14.4415C17.6334 15.1499 17.0667 15.6915 16.3501 15.9332C14.3084 16.6249 12.1667 16.9582 10.0167 16.9582ZM10.0167 2.29154C7.30005 2.29154 5.09172 4.49987 5.09172 7.21654V8.96654C5.09172 9.64154 4.82505 10.6165 4.47505 11.1915L3.41672 12.9665C3.20005 13.3249 3.15005 13.7082 3.27505 14.0415C3.40005 14.3749 3.68339 14.6249 4.08339 14.7582C7.91672 16.0332 12.1334 16.0332 15.9667 14.7582C16.3251 14.6415 16.6001 14.3749 16.7251 14.0249C16.8584 13.6749 16.8167 13.2915 16.6251 12.9665L15.5667 11.1999C15.2167 10.6249 14.9501 9.64987 14.9501 8.97487V7.22487C14.9417 4.49987 12.7334 2.29154 10.0167 2.29154Z" fill="#667185"/>
<path d="M10.0001 19.0836C9.10843 19.0836 8.23343 18.7169 7.6001 18.0836C6.96676 17.4503 6.6001 16.5753 6.6001 15.6836H7.8501C7.8501 16.2503 8.08343 16.8003 8.48343 17.2003C8.88343 17.6003 9.43343 17.8336 10.0001 17.8336C11.1834 17.8336 12.1501 16.8669 12.1501 15.6836H13.4001C13.4001 17.5586 11.8751 19.0836 10.0001 19.0836Z" fill="#667185"/>
</svg>
