<svg width="18" height="19" viewBox="0 0 18 19" fill="none" xmlns="http://www.w3.org/2000/svg">
<mask id="mask0_95_22779" style="mask-type:alpha" maskUnits="userSpaceOnUse" x="0" y="0" width="18" height="19">
<rect y="0.505127" width="18" height="18" fill="#D9D9D9"/>
</mask>
<g mask="url(#mask0_95_22779)">
<path d="M3.98078 15.8813C3.60193 15.8813 3.28125 15.7501 3.01875 15.4876C2.75625 15.2251 2.625 14.9044 2.625 14.5255V4.48712C2.625 4.10827 2.75625 3.7876 3.01875 3.5251C3.28125 3.2626 3.60193 3.13135 3.98078 3.13135H8.71149V4.25633H3.98078C3.92308 4.25633 3.87018 4.28037 3.82209 4.32844C3.77402 4.37653 3.74998 4.42942 3.74998 4.48712V14.5255C3.74998 14.5832 3.77402 14.6361 3.82209 14.6842C3.87018 14.7323 3.92308 14.7563 3.98078 14.7563H14.0192C14.0769 14.7563 14.1298 14.7323 14.1779 14.6842C14.2259 14.6361 14.25 14.5832 14.25 14.5255V9.79482H15.375V14.5255C15.375 14.9044 15.2437 15.2251 14.9812 15.4876C14.7187 15.7501 14.398 15.8813 14.0192 15.8813H3.98078ZM7.2894 12.0073L6.49903 11.2169L13.4596 4.25633H10.5V3.13135H15.375V8.00633H14.25V5.0467L7.2894 12.0073Z" fill="#8D8484"/>
</g>
</svg>
