<svg width="14" height="14" viewBox="0 0 14 14" fill="none" xmlns="http://www.w3.org/2000/svg">
<path fill-rule="evenodd" clip-rule="evenodd" d="M4.41005 8.97757C4.08002 8.77627 3.69031 8.69585 3.30755 8.75007H2.33337V12.2501H3.1092V10.9142H3.4417C3.78615 10.9496 4.13227 10.8652 4.4217 10.6751C4.54295 10.5711 4.63903 10.4409 4.70269 10.2944C4.76634 10.1479 4.79592 9.98885 4.7892 9.82925C4.79817 9.66738 4.76847 9.5057 4.70253 9.3576C4.6366 9.20949 4.53634 9.07922 4.41005 8.97757ZM3.78587 10.2551C3.63933 10.3196 3.47822 10.3437 3.3192 10.3251H3.0917V9.33342H3.3192C3.4844 9.31587 3.65106 9.34839 3.79755 9.42675C3.86464 9.47347 3.91863 9.53661 3.95437 9.61014C3.99011 9.68367 4.00641 9.76513 4.0017 9.84675C4.01032 9.92855 3.99441 10.0111 3.95597 10.0838C3.91753 10.1565 3.85832 10.2161 3.78587 10.2551ZM6.45755 8.75007H5.4892V12.2501H6.4167C6.88939 12.2963 7.36539 12.2052 7.78755 11.9876C8.01589 11.8174 8.19614 11.5908 8.31066 11.3301C8.42518 11.0694 8.47005 10.7834 8.44087 10.5001C8.45807 10.2559 8.42386 10.0109 8.34046 9.78081C8.25706 9.55072 8.12632 9.34067 7.9567 9.16425C7.74694 8.99894 7.5063 8.87716 7.24887 8.80604C6.99145 8.73492 6.72242 8.71589 6.45755 8.75007ZM7.22755 11.4567C6.98452 11.5934 6.70625 11.6543 6.42837 11.6317H6.2767V9.36842H6.4167C6.9067 9.36842 7.0992 9.41507 7.2917 9.59007C7.40724 9.71037 7.49647 9.85341 7.55371 10.0101C7.61096 10.1668 7.63496 10.3336 7.6242 10.5001C7.63899 10.6796 7.61071 10.86 7.54172 11.0264C7.47273 11.1928 7.36502 11.3404 7.22755 11.4567ZM9.29255 12.2501H10.08V10.7859H11.6667V10.1676H10.08V9.36842H11.6667V8.75007H9.29255V12.2501ZM8.75005 1.16675H2.33337V7.58342H3.50005V2.33342H8.26587L10.5 4.56757V7.58342H11.6667V4.08342L8.75005 1.16675Z" fill="#667185"/>
</svg>
