<svg width="14" height="14" viewBox="0 0 14 14" fill="none" xmlns="http://www.w3.org/2000/svg">
<path d="M3.28125 7.875H2.40625C2.29022 7.875 2.17894 7.92109 2.09689 8.00314C2.01484 8.08519 1.96875 8.19647 1.96875 8.3125V11.375C1.96875 11.491 2.01484 11.6023 2.09689 11.6844C2.17894 11.7664 2.29022 11.8125 2.40625 11.8125C2.52228 11.8125 2.63356 11.7664 2.71561 11.6844C2.79766 11.6023 2.84375 11.491 2.84375 11.375V10.9375H3.28125C3.68736 10.9375 4.07684 10.7762 4.36401 10.489C4.65117 10.2018 4.8125 9.81236 4.8125 9.40625C4.8125 9.00014 4.65117 8.61066 4.36401 8.32349C4.07684 8.03633 3.68736 7.875 3.28125 7.875ZM3.28125 10.0625H2.84375V8.75H3.28125C3.4553 8.75 3.62222 8.81914 3.74529 8.94221C3.86836 9.06528 3.9375 9.2322 3.9375 9.40625C3.9375 9.5803 3.86836 9.74722 3.74529 9.87029C3.62222 9.99336 3.4553 10.0625 3.28125 10.0625ZM12.25 10.9851C12.25 11.0978 12.2065 11.2061 12.1286 11.2875C11.9763 11.4515 11.792 11.5826 11.5872 11.6729C11.3824 11.7632 11.1613 11.8107 10.9375 11.8125C9.97227 11.8125 9.1875 10.9293 9.1875 9.84375C9.1875 8.7582 9.97227 7.875 10.9375 7.875C11.2591 7.87608 11.573 7.97341 11.8387 8.15445C11.935 8.21972 12.0013 8.32054 12.0232 8.43474C12.0451 8.54894 12.0208 8.66716 11.9555 8.7634C11.8902 8.85963 11.7894 8.926 11.6752 8.94789C11.561 8.96979 11.4428 8.94542 11.3466 8.88016C11.2266 8.79629 11.0839 8.7509 10.9375 8.75C10.4552 8.75 10.0625 9.24219 10.0625 9.84375C10.0625 10.4453 10.4552 10.9375 10.9375 10.9375C11.0954 10.9357 11.2487 10.8836 11.375 10.7887V10.5C11.259 10.5 11.1477 10.4539 11.0656 10.3719C10.9836 10.2898 10.9375 10.1785 10.9375 10.0625C10.9375 9.94647 10.9836 9.83519 11.0656 9.75314C11.1477 9.67109 11.259 9.625 11.375 9.625H11.8125C11.9285 9.625 12.0398 9.67109 12.1219 9.75314C12.2039 9.83519 12.25 9.94647 12.25 10.0625V10.9851ZM8.53125 8.3125V11.375C8.53126 11.4677 8.50182 11.558 8.44717 11.6329C8.39252 11.7078 8.31549 11.7634 8.22719 11.7917C8.18407 11.8056 8.13904 11.8126 8.09375 11.8125C8.02411 11.8125 7.95548 11.7959 7.89356 11.764C7.83163 11.7322 7.77821 11.686 7.73773 11.6293L6.34375 9.67969V11.375C6.34375 11.491 6.29766 11.6023 6.21561 11.6844C6.13356 11.7664 6.02228 11.8125 5.90625 11.8125C5.79022 11.8125 5.67894 11.7664 5.59689 11.6844C5.51484 11.6023 5.46875 11.491 5.46875 11.375V8.3125C5.46875 8.21981 5.49818 8.1295 5.55282 8.05462C5.60745 7.97974 5.68446 7.92414 5.77273 7.89586C5.86101 7.86757 5.95598 7.86805 6.04397 7.89723C6.13195 7.9264 6.20839 7.98277 6.26227 8.0582L7.65625 10.0078V8.3125C7.65625 8.19647 7.70234 8.08519 7.78439 8.00314C7.86644 7.92109 7.97772 7.875 8.09375 7.875C8.20978 7.875 8.32106 7.92109 8.40311 8.00314C8.48516 8.08519 8.53125 8.19647 8.53125 8.3125ZM2.625 6.5625C2.74103 6.5625 2.85231 6.51641 2.93436 6.43436C3.01641 6.35231 3.0625 6.24103 3.0625 6.125V2.1875H7.875V4.8125C7.875 4.92853 7.92109 5.03981 8.00314 5.12186C8.08519 5.20391 8.19647 5.25 8.3125 5.25H10.9375V6.125C10.9375 6.24103 10.9836 6.35231 11.0656 6.43436C11.1477 6.51641 11.259 6.5625 11.375 6.5625C11.491 6.5625 11.6023 6.51641 11.6844 6.43436C11.7664 6.35231 11.8125 6.24103 11.8125 6.125V4.8125C11.8125 4.75503 11.8013 4.69811 11.7793 4.645C11.7574 4.59189 11.7251 4.54363 11.6845 4.50297L8.62203 1.44047C8.58137 1.39985 8.53311 1.36765 8.48 1.34569C8.42689 1.32373 8.36997 1.31245 8.3125 1.3125H3.0625C2.83044 1.3125 2.60788 1.40469 2.44378 1.56878C2.27969 1.73288 2.1875 1.95544 2.1875 2.1875V6.125C2.1875 6.24103 2.23359 6.35231 2.31564 6.43436C2.39769 6.51641 2.50897 6.5625 2.625 6.5625ZM8.75 2.80602L10.319 4.375H8.75V2.80602Z" fill="#667185"/>
</svg>
