<svg width="120" height="120" viewBox="0 0 120 120" fill="none" xmlns="http://www.w3.org/2000/svg">
<path d="M45 10C31.9 10 21.25 20.65 21.25 33.75C21.25 46.6 31.3 57 44.4 57.45C44.8 57.4 45.2 57.4 45.5 57.45C45.6 57.45 45.65 57.45 45.75 57.45C45.8 57.45 45.8 57.45 45.85 57.45C58.65 57 68.7 46.6 68.75 33.75C68.75 20.65 58.1 10 45 10Z" fill="#8F2802"/>
<path d="M70.3998 70.7494C56.4498 61.4494 33.6998 61.4494 19.6498 70.7494C13.2998 74.9994 9.7998 80.7494 9.7998 86.8994C9.7998 93.0494 13.2998 98.7494 19.5998 102.949C26.5998 107.649 35.7998 109.999 44.9998 109.999C54.1998 109.999 63.3998 107.649 70.3998 102.949C76.6998 98.6994 80.1998 92.9994 80.1998 86.7994C80.1498 80.6494 76.6998 74.9494 70.3998 70.7494Z" fill="#8F2802"/>
<path d="M99.9518 36.7005C100.752 46.4005 93.8518 54.9005 84.3018 56.0505C84.2518 56.0505 84.2518 56.0505 84.2018 56.0505H84.0518C83.7518 56.0505 83.4518 56.0505 83.2018 56.1505C78.3518 56.4005 73.9018 54.8505 70.5518 52.0005C75.7018 47.4005 78.6518 40.5005 78.0518 33.0005C77.7018 28.9505 76.3018 25.2505 74.2018 22.1005C76.1018 21.1505 78.3018 20.5505 80.5518 20.3505C90.3518 19.5005 99.1018 26.8005 99.9518 36.7005Z" fill="#8F2802"/>
<path d="M109.951 82.9495C109.551 87.7995 106.451 91.9995 101.251 94.8495C96.2512 97.5995 89.9512 98.8995 83.7012 98.7495C87.3012 95.4995 89.4012 91.4495 89.8012 87.1495C90.3012 80.9495 87.3512 74.9995 81.4512 70.2495C78.1012 67.5995 74.2012 65.4995 69.9512 63.9495C81.0012 60.7495 94.9012 62.8995 103.451 69.7995C108.051 73.4995 110.401 78.1495 109.951 82.9495Z" fill="#8F2802"/>
</svg>
