<svg width="21" height="20" viewBox="0 0 21 20" fill="none" xmlns="http://www.w3.org/2000/svg">
<path fill-rule="evenodd" clip-rule="evenodd" d="M10.2204 19.8815C11.5225 19.8815 12.8119 19.6251 14.0148 19.1268C15.2178 18.6285 16.3109 17.8981 17.2316 16.9774C18.1523 16.0567 18.8826 14.9637 19.3809 13.7607C19.8792 12.5577 20.1357 11.2684 20.1357 9.96628C20.1357 8.66419 19.8792 7.37485 19.3809 6.17188C18.8826 4.9689 18.1523 3.87585 17.2316 2.95514C16.3109 2.03442 15.2178 1.30407 14.0148 0.805779C12.8119 0.307491 11.5225 0.0510254 10.2204 0.0510254C7.59074 0.0510254 5.06876 1.09567 3.20929 2.95514C1.34982 4.81461 0.305176 7.33659 0.305176 9.96628C0.305176 12.596 1.34982 15.118 3.20929 16.9774C5.06876 18.8369 7.59074 19.8815 10.2204 19.8815ZM15.4733 7.36628C15.57 7.25572 15.6437 7.12692 15.6899 6.98748C15.7361 6.84804 15.754 6.70076 15.7424 6.55431C15.7309 6.40787 15.6902 6.26521 15.6227 6.13473C15.5552 6.00425 15.4623 5.88858 15.3494 5.79454C15.2366 5.70049 15.1061 5.62997 14.9655 5.58711C14.825 5.54426 14.6774 5.52993 14.5312 5.54499C14.3851 5.56004 14.2435 5.60417 14.1146 5.67477C13.9858 5.74538 13.8724 5.84103 13.7811 5.95611L9.81721 10.7121C9.43492 11.1704 9.22009 11.4249 9.04933 11.5803L9.04272 11.5869L9.03501 11.5814C8.84992 11.4414 8.61306 11.2079 8.19221 10.7859L6.59255 9.18738C6.38477 8.9867 6.10648 8.87565 5.81762 8.87816C5.52875 8.88067 5.25244 8.99654 5.04817 9.2008C4.84391 9.40506 4.72804 9.68138 4.72553 9.97025C4.72302 10.2591 4.83407 10.5374 5.03475 10.7452L6.63331 12.3437L6.67848 12.3889C7.03873 12.7492 7.38357 13.0951 7.70636 13.3386C8.06662 13.6118 8.53924 13.8674 9.14407 13.8409C9.75001 13.8134 10.1973 13.5148 10.5322 13.2108C10.8297 12.9387 11.1437 12.563 11.4687 12.1719L11.5094 12.1234L15.4733 7.36628Z" fill="#9CA3AF"/>
</svg>
