<svg width="110" height="112" viewBox="0 0 110 112" fill="none" xmlns="http://www.w3.org/2000/svg">
<g filter="url(#filter0_d_5603_26019)">
<path d="M72.7273 55.375C75.0053 53.0969 75.0053 49.4034 72.7273 47.1254C70.4492 44.8473 66.7557 44.8473 64.4777 47.1254L53.1684 58.4346L51.524 56.7903C49.246 54.5123 45.5525 54.5123 43.2744 56.7903C40.9964 59.0684 40.9964 62.7618 43.2744 65.0399L49.0436 70.809C51.3216 73.0871 55.0151 73.0871 57.2931 70.809L72.7273 55.375Z" fill="#D42620"/>
<path fill-rule="evenodd" clip-rule="evenodd" d="M65.6779 1.77627C60.1078 -0.455371 53.8922 -0.45537 48.3221 1.77627L27.1671 10.252C27.1013 10.2784 27.036 10.3059 26.9712 10.3347L17.9439 14.3391C10.0268 17.8511 4.49924 25.5838 4.5 34.5884C4.50097 46.0639 5.3283 65.4872 10.7233 78.8141C14.3105 87.6754 20.7713 95.3557 27.3377 101.493C33.9512 107.675 40.997 112.592 46.1795 115.864C52.8209 120.058 61.1791 120.058 67.8205 115.864C73.003 112.592 80.0488 107.675 86.6623 101.493C93.2287 95.3557 99.6895 87.6754 103.277 78.8141C108.672 65.4872 109.499 46.0639 109.5 34.5884C109.501 25.5838 103.973 17.8511 96.0561 14.3391L87.0288 10.3347C86.964 10.3059 86.8987 10.2784 86.8329 10.252L65.6779 1.77627ZM52.661 12.6061C55.4461 11.4903 58.5539 11.4903 61.3389 12.6061L82.3953 21.0423L91.3254 25.0036C95.3434 26.786 97.8337 30.5353 97.8333 34.5875C97.8324 46.1422 96.909 63.4526 92.4626 74.4364C89.7677 81.0933 84.6426 87.4116 78.6956 92.9703C72.7958 98.485 66.4009 102.963 61.5916 105.999C58.7553 107.79 55.2447 107.79 52.4084 105.999C47.5991 102.963 41.2042 98.485 35.3044 92.9703C29.3574 87.4116 24.2323 81.0933 21.5374 74.4364C17.091 63.4526 16.1676 46.1422 16.1667 34.5875C16.1663 30.5353 18.6566 26.786 22.6746 25.0036L31.6047 21.0423L52.661 12.6061Z" fill="#D42620"/>
</g>
<defs>
<filter id="filter0_d_5603_26019" x="0.5" y="0.102539" width="109" height="126.907" filterUnits="userSpaceOnUse" color-interpolation-filters="sRGB">
<feFlood flood-opacity="0" result="BackgroundImageFix"/>
<feColorMatrix in="SourceAlpha" type="matrix" values="0 0 0 0 0 0 0 0 0 0 0 0 0 0 0 0 0 0 127 0" result="hardAlpha"/>
<feOffset dx="-4" dy="8"/>
<feComposite in2="hardAlpha" operator="out"/>
<feColorMatrix type="matrix" values="0 0 0 0 0.960784 0 0 0 0 0.4 0 0 0 0 0.188235 0 0 0 0.37 0"/>
<feBlend mode="normal" in2="BackgroundImageFix" result="effect1_dropShadow_5603_26019"/>
<feBlend mode="normal" in="SourceGraphic" in2="effect1_dropShadow_5603_26019" result="shape"/>
</filter>
</defs>
</svg>
