<svg width="24" height="24" viewBox="0 0 24 24" fill="none" xmlns="http://www.w3.org/2000/svg">
<path d="M5.10182 6.46593C4.7998 6.89622 4.7998 8.17526 4.7998 10.7333V11.9931C4.7998 16.5035 8.19097 18.6924 10.3187 19.6218C10.8958 19.8739 11.1844 20 11.9998 20C12.8152 20 13.1038 19.8739 13.681 19.6218C15.8086 18.6924 19.1998 16.5035 19.1998 11.9931V10.7333C19.1998 8.17526 19.1998 6.89622 18.8978 6.46593C18.5958 6.03563 17.3931 5.62397 14.9879 4.80063L14.5296 4.64377C13.2758 4.21459 12.6489 4 11.9998 4C11.3507 4 10.7238 4.21459 9.46998 4.64377L9.01173 4.80063C6.60646 5.62397 5.40383 6.03563 5.10182 6.46593Z" fill="#667185"/>
<path d="M11.0888 9.09068L10.984 9.27879C10.8688 9.48542 10.8112 9.58873 10.7214 9.6569C10.6316 9.72506 10.5198 9.75037 10.2961 9.80098L10.0925 9.84705C9.30536 10.0251 8.91181 10.1142 8.81818 10.4153C8.72455 10.7164 8.99284 11.0301 9.52944 11.6576L9.66826 11.8199C9.82074 11.9982 9.89698 12.0874 9.93128 12.1977C9.96558 12.308 9.95405 12.4269 9.931 12.6648L9.91001 12.8814C9.82889 13.7186 9.78832 14.1372 10.0335 14.3233C10.2786 14.5094 10.6471 14.3397 11.384 14.0004L11.5747 13.9126L11.5747 13.9126C11.7841 13.8162 11.8888 13.768 11.9998 13.768C12.1108 13.768 12.2155 13.8162 12.4249 13.9126L12.6156 14.0004L12.6156 14.0004C13.3526 14.3397 13.721 14.5094 13.9662 14.3233C14.2113 14.1372 14.1707 13.7186 14.0896 12.8814L14.0686 12.6648L14.0686 12.6648C14.0456 12.4269 14.034 12.308 14.0683 12.1977C14.1026 12.0874 14.1789 11.9982 14.3314 11.8199L14.4702 11.6576L14.4702 11.6576C15.0068 11.0301 15.2751 10.7164 15.1814 10.4153C15.0878 10.1142 14.6943 10.0251 13.9072 9.84705L13.7035 9.80098C13.4799 9.75037 13.368 9.72506 13.2782 9.6569C13.1884 9.58873 13.1308 9.48542 13.0157 9.27881L13.0157 9.2788L12.9108 9.09068L12.9108 9.09068C12.5055 8.36356 12.3028 8 11.9998 8C11.6968 8 11.4941 8.36356 11.0888 9.09067L11.0888 9.09068Z" fill="white"/>
</svg>
