<svg width="14" height="14" viewBox="0 0 14 14" fill="none" xmlns="http://www.w3.org/2000/svg">
<path d="M7 9.1875C5.7925 9.1875 4.8125 8.2075 4.8125 7C4.8125 5.7925 5.7925 4.8125 7 4.8125C8.2075 4.8125 9.1875 5.7925 9.1875 7C9.1875 8.2075 8.2075 9.1875 7 9.1875ZM7 5.6875C6.27667 5.6875 5.6875 6.27667 5.6875 7C5.6875 7.72333 6.27667 8.3125 7 8.3125C7.72333 8.3125 8.3125 7.72333 8.3125 7C8.3125 6.27667 7.72333 5.6875 7 5.6875Z" fill="#099137"/>
<path d="M8.87258 12.9442C8.75008 12.9442 8.62758 12.9267 8.50508 12.8975C8.14341 12.7983 7.84008 12.5708 7.64758 12.25L7.57758 12.1333C7.23341 11.5383 6.76091 11.5383 6.41675 12.1333L6.35258 12.2442C6.16008 12.5708 5.85675 12.8042 5.49508 12.8975C5.12758 12.9967 4.74841 12.9442 4.42758 12.7517L3.42425 12.1742C3.06841 11.97 2.81175 11.6375 2.70091 11.235C2.59591 10.8325 2.64841 10.4183 2.85258 10.0625C3.02175 9.76501 3.06841 9.49667 2.96925 9.3275C2.87008 9.15834 2.61925 9.05917 2.27508 9.05917C1.42341 9.05917 0.729248 8.365 0.729248 7.51334V6.48667C0.729248 5.635 1.42341 4.94084 2.27508 4.94084C2.61925 4.94084 2.87008 4.84167 2.96925 4.6725C3.06841 4.50334 3.02758 4.235 2.85258 3.9375C2.64841 3.58167 2.59591 3.16167 2.70091 2.765C2.80591 2.3625 3.06258 2.03 3.42425 1.82584L4.43341 1.24834C5.09258 0.857504 5.96175 1.085 6.35841 1.75584L6.42841 1.8725C6.77258 2.4675 7.24508 2.4675 7.58925 1.8725L7.65341 1.76167C8.05008 1.085 8.91925 0.857504 9.58425 1.25417L10.5876 1.83167C10.9434 2.03584 11.2001 2.36834 11.3109 2.77084C11.4159 3.17334 11.3634 3.5875 11.1592 3.94334C10.9901 4.24084 10.9434 4.50917 11.0426 4.67834C11.1417 4.8475 11.3926 4.94667 11.7367 4.94667C12.5884 4.94667 13.2826 5.64084 13.2826 6.4925V7.51917C13.2826 8.37084 12.5884 9.065 11.7367 9.065C11.3926 9.065 11.1417 9.16417 11.0426 9.33334C10.9434 9.5025 10.9842 9.77084 11.1592 10.0683C11.3634 10.4242 11.4217 10.8442 11.3109 11.2408C11.2059 11.6433 10.9492 11.9758 10.5876 12.18L9.57841 12.7575C9.35675 12.88 9.11758 12.9442 8.87258 12.9442ZM7.00008 10.7858C7.51925 10.7858 8.00341 11.1125 8.33591 11.69L8.40008 11.8008C8.47008 11.9233 8.58675 12.0108 8.72675 12.0458C8.86675 12.0808 9.00675 12.0633 9.12341 11.9933L10.1326 11.41C10.2842 11.3225 10.4009 11.1767 10.4476 11.0017C10.4942 10.8267 10.4709 10.6458 10.3834 10.4942C10.0509 9.9225 10.0101 9.33334 10.2667 8.88417C10.5234 8.435 11.0542 8.17834 11.7192 8.17834C12.0926 8.17834 12.3901 7.88084 12.3901 7.5075V6.48084C12.3901 6.11334 12.0926 5.81 11.7192 5.81C11.0542 5.81 10.5234 5.55334 10.2667 5.10417C10.0101 4.655 10.0509 4.06584 10.3834 3.49417C10.4709 3.3425 10.4942 3.16167 10.4476 2.98667C10.4009 2.81167 10.2901 2.67167 10.1384 2.57834L9.12925 2.00084C8.87841 1.84917 8.54591 1.93667 8.39425 2.19334L8.33008 2.30417C7.99758 2.88167 7.51341 3.20834 6.99425 3.20834C6.47508 3.20834 5.99091 2.88167 5.65841 2.30417L5.59425 2.1875C5.44841 1.9425 5.12175 1.855 4.87091 2.00084L3.86175 2.58417C3.71008 2.67167 3.59341 2.8175 3.54675 2.9925C3.50008 3.1675 3.52341 3.34834 3.61091 3.5C3.94341 4.07167 3.98425 4.66084 3.72758 5.11C3.47091 5.55917 2.94008 5.81584 2.27508 5.81584C1.90175 5.81584 1.60425 6.11334 1.60425 6.48667V7.51334C1.60425 7.88084 1.90175 8.18417 2.27508 8.18417C2.94008 8.18417 3.47091 8.44084 3.72758 8.89C3.98425 9.33917 3.94341 9.92834 3.61091 10.5C3.52341 10.6517 3.50008 10.8325 3.54675 11.0075C3.59341 11.1825 3.70425 11.3225 3.85591 11.4158L4.86508 11.9933C4.98758 12.0692 5.13341 12.0867 5.26758 12.0517C5.40758 12.0167 5.52425 11.9233 5.60008 11.8008L5.66425 11.69C5.99675 11.1183 6.48091 10.7858 7.00008 10.7858Z" fill="#099137"/>
</svg>
