<svg width="20" height="20" viewBox="0 0 20 20" fill="none" xmlns="http://www.w3.org/2000/svg">
<path fill-rule="evenodd" clip-rule="evenodd" d="M9.16699 1.6665C5.02486 1.6665 1.66699 5.02437 1.66699 9.1665C1.66699 13.3086 5.02486 16.6665 9.16699 16.6665C10.9378 16.6665 12.5653 16.0528 13.8484 15.0264L16.9111 18.0891C17.2365 18.4145 17.7641 18.4145 18.0896 18.0891C18.415 17.7637 18.415 17.236 18.0896 16.9106L15.0269 13.8479C16.0533 12.5649 16.667 10.9373 16.667 9.1665C16.667 5.02437 13.3091 1.6665 9.16699 1.6665ZM3.33366 9.1665C3.33366 5.94484 5.94533 3.33317 9.16699 3.33317C12.3887 3.33317 15.0003 5.94484 15.0003 9.1665C15.0003 12.3882 12.3887 14.9998 9.16699 14.9998C5.94533 14.9998 3.33366 12.3882 3.33366 9.1665Z" fill="#667185"/>
</svg>
