<svg width="20" height="20" viewBox="0 0 20 20" fill="none" xmlns="http://www.w3.org/2000/svg">
<path fill-rule="evenodd" clip-rule="evenodd" d="M12.5003 2.5C14.0535 2.5 15.3586 3.56231 15.7286 5H17.5003C17.9606 5 18.3337 5.3731 18.3337 5.83333C18.3337 6.29357 17.9606 6.66667 17.5003 6.66667H15.7286C15.3586 8.10436 14.0535 9.16667 12.5003 9.16667C10.9471 9.16667 9.64204 8.10436 9.27201 6.66667L2.50033 6.66667C2.04009 6.66667 1.66699 6.29357 1.66699 5.83333C1.66699 5.3731 2.04009 5 2.50033 5L9.27201 5C9.64204 3.56231 10.9471 2.5 12.5003 2.5ZM12.5003 4.16667C13.4208 4.16667 14.167 4.91286 14.167 5.83333C14.167 6.75381 13.4208 7.5 12.5003 7.5C11.5799 7.5 10.8337 6.75381 10.8337 5.83333C10.8337 4.91286 11.5799 4.16667 12.5003 4.16667Z" fill="#667185"/>
<path fill-rule="evenodd" clip-rule="evenodd" d="M4.27201 13.3333H2.50033C2.04009 13.3333 1.66699 13.7064 1.66699 14.1667C1.66699 14.6269 2.04009 15 2.50033 15H4.27201C4.64204 16.4377 5.94713 17.5 7.50033 17.5C9.05352 17.5 10.3586 16.4377 10.7286 15L17.5003 15C17.9606 15 18.3337 14.6269 18.3337 14.1667C18.3337 13.7064 17.9606 13.3333 17.5003 13.3333L10.7286 13.3333C10.3586 11.8956 9.05352 10.8333 7.50033 10.8333C5.94713 10.8333 4.64204 11.8956 4.27201 13.3333ZM7.50033 15.8333C8.4208 15.8333 9.16699 15.0871 9.16699 14.1667C9.16699 13.2462 8.4208 12.5 7.50033 12.5C6.57985 12.5 5.83366 13.2462 5.83366 14.1667C5.83366 15.0871 6.57985 15.8333 7.50033 15.8333Z" fill="#667185"/>
</svg>
