<svg width="40" height="40" viewBox="0 0 40 40" fill="none" xmlns="http://www.w3.org/2000/svg">
<g clip-path="url(#clip0_2409_4082)">
<circle cx="20" cy="20" r="20" fill="#ECFDF3"/>
<mask id="mask0_2409_4082" style="mask-type:alpha" maskUnits="userSpaceOnUse" x="10" y="10" width="20" height="20">
<rect x="10" y="10" width="20" height="20" fill="#D9D9D9"/>
</mask>
<g mask="url(#mask0_2409_4082)">
<path d="M17.1459 22.2629C17.3339 22.7981 17.6336 23.2479 18.045 23.6122C18.4563 23.9765 18.9253 24.2298 19.452 24.3719V24.8126C19.452 24.9643 19.5054 25.0901 19.6122 25.19C19.7191 25.2898 19.8484 25.3398 20.0001 25.3398C20.1518 25.3398 20.2776 25.2864 20.3775 25.1795C20.4773 25.0727 20.5273 24.9434 20.5273 24.7917V24.3927C21.1598 24.319 21.7102 24.0553 22.1787 23.6018C22.6472 23.1483 22.8815 22.6144 22.8815 22.0001C22.8815 21.3751 22.6851 20.859 22.2925 20.452C21.8999 20.0449 21.3077 19.6956 20.5161 19.4039C19.6261 19.077 19.0617 18.8005 18.823 18.5746C18.5842 18.3486 18.4648 18.046 18.4648 17.6667C18.4648 17.3569 18.605 17.093 18.8855 16.8751C19.1659 16.6571 19.5166 16.5481 19.9376 16.5481C20.3158 16.5481 20.6587 16.6365 20.9664 16.8134C21.2741 16.9902 21.4926 17.233 21.6219 17.5417L22.5465 17.1491C22.3585 16.7335 22.0884 16.3922 21.7364 16.1251C21.3844 15.858 20.9813 15.6854 20.5273 15.6074V15.1876C20.5273 15.0359 20.4773 14.9101 20.3775 14.8102C20.2776 14.7103 20.1518 14.6603 20.0001 14.6603C19.8484 14.6603 19.7226 14.7103 19.6227 14.8102C19.5228 14.9101 19.4728 15.0359 19.4728 15.1876V15.6283C18.8318 15.7511 18.3278 16.0011 17.9608 16.3783C17.5938 16.7554 17.4103 17.1918 17.4103 17.6876C17.4103 18.2859 17.6208 18.7931 18.0417 19.2092C18.4627 19.6253 19.1502 20.0011 20.1042 20.3366C20.7399 20.5642 21.1921 20.8069 21.4608 21.065C21.7295 21.323 21.8639 21.6347 21.8639 22.0001C21.8639 22.4253 21.6926 22.7701 21.3502 23.0345C21.0078 23.299 20.6146 23.4312 20.1707 23.4312C19.699 23.4312 19.2781 23.2797 18.9079 22.9768C18.5377 22.674 18.2741 22.2928 18.117 21.8334L17.1459 22.2629ZM20.0015 27.5834C18.9621 27.5834 17.9815 27.386 17.0597 26.9913C16.1379 26.5966 15.3311 26.0534 14.6392 25.3619C13.9474 24.6704 13.404 23.8639 13.0091 22.9426C12.6142 22.0212 12.4167 21.0408 12.4167 20.0015C12.4167 18.9482 12.6141 17.9641 13.0088 17.0493C13.4036 16.1344 13.9467 15.3311 14.6382 14.6392C15.3297 13.9474 16.1362 13.404 17.0576 13.0091C17.9789 12.6142 18.9593 12.4167 19.9987 12.4167C21.0519 12.4167 22.036 12.6141 22.9508 13.0088C23.8657 13.4036 24.669 13.9467 25.3609 14.6382C26.0527 15.3297 26.5961 16.1327 26.991 17.0471C27.3859 17.9615 27.5834 18.9454 27.5834 19.9987C27.5834 21.0381 27.386 22.0186 26.9913 22.9404C26.5966 23.8622 26.0534 24.669 25.3619 25.3609C24.6704 26.0527 23.8674 26.5961 22.953 26.991C22.0386 27.3859 21.0547 27.5834 20.0015 27.5834ZM20.0001 26.5001C21.8056 26.5001 23.3403 25.8681 24.6042 24.6042C25.8681 23.3403 26.5001 21.8056 26.5001 20.0001C26.5001 18.1945 25.8681 16.6598 24.6042 15.3959C23.3403 14.132 21.8056 13.5001 20.0001 13.5001C18.1945 13.5001 16.6598 14.132 15.3959 15.3959C14.132 16.6598 13.5001 18.1945 13.5001 20.0001C13.5001 21.8056 14.132 23.3403 15.3959 24.6042C16.6598 25.8681 18.1945 26.5001 20.0001 26.5001Z" fill="#12B76A"/>
</g>
</g>
<defs>
<clipPath id="clip0_2409_4082">
<rect width="40" height="40" fill="white"/>
</clipPath>
</defs>
</svg>
