<svg width="16" height="16" viewBox="0 0 16 16" fill="none" xmlns="http://www.w3.org/2000/svg">
<path d="M5.0396 15.3472C4.16941 16.0095 2.96108 15.1676 3.281 14.1219L4.28447 10.8417C4.42596 10.3792 4.25628 9.87801 3.86293 9.5966L1.38979 7.82719C0.499311 7.1901 0.950016 5.78555 2.04492 5.78555H5.09468C5.5919 5.78555 6.03025 5.4594 6.17313 4.98315L7.18962 1.59482C7.51058 0.52496 9.02556 0.52496 9.34652 1.59482L10.363 4.98315C10.5059 5.45941 10.9442 5.78555 11.4415 5.78555H14.4912C15.5861 5.78555 16.0368 7.1901 15.1464 7.82719L12.6732 9.5966C12.2799 9.87801 12.1102 10.3792 12.2517 10.8417L13.2551 14.1219C13.5751 15.1676 12.3667 16.0095 11.4965 15.3472L8.95 13.4089C8.5471 13.1022 7.98905 13.1022 7.58615 13.4089L5.0396 15.3472Z" fill="#E4E7EC"/>
</svg>
