<svg width="13" height="13" viewBox="0 0 13 13" fill="none" xmlns="http://www.w3.org/2000/svg">
<path d="M3.99071 12.4535C3.21784 13.0417 2.14466 12.294 2.4288 11.3652L3.24793 8.68758C3.37359 8.27682 3.22289 7.83169 2.87354 7.58175L0.867733 6.1467C0.0768553 5.58087 0.477149 4.33341 1.44959 4.33341H3.92255C4.36416 4.33341 4.75349 4.04375 4.88038 3.62076L5.70876 0.859502C5.99382 -0.0907011 7.33935 -0.0907011 7.62441 0.859502L8.45279 3.62076C8.57969 4.04375 8.96901 4.33341 9.41062 4.33341H11.8836C12.856 4.33341 13.2563 5.58087 12.4654 6.1467L10.4596 7.58175C10.1103 7.83169 9.95958 8.27682 10.0852 8.68758L10.9044 11.3652C11.1885 12.294 10.1153 13.0417 9.34247 12.4535L7.27224 10.8777C6.9144 10.6054 6.41877 10.6054 6.06093 10.8777L3.99071 12.4535Z" fill="#FFB703"/>
</svg>
