<svg width="18" height="18" viewBox="0 0 18 18" fill="none" xmlns="http://www.w3.org/2000/svg">
<path d="M1.59813 17.4618C1.2802 17.5324 1.00649 17.4529 0.776985 17.2234C0.547502 16.9939 0.468018 16.7202 0.538535 16.4022L1.37506 12.3869L5.61346 16.6253L1.59813 17.4618ZM5.61346 16.6253L1.37506 12.3869L12.5943 1.16769C12.9392 0.822823 13.3661 0.650391 13.875 0.650391C14.384 0.650391 14.8109 0.822823 15.1558 1.16769L16.8327 2.84459C17.1776 3.18946 17.35 3.61637 17.35 4.12534C17.35 4.63431 17.1776 5.06122 16.8327 5.40609L5.61346 16.6253ZM13.6635 2.22151L3.43848 12.4369L5.56349 14.5619L15.7789 4.33689C15.8366 4.27919 15.8654 4.20707 15.8654 4.12054C15.8654 4.03399 15.8366 3.96187 15.7789 3.90417L14.0962 2.22151C14.0385 2.16381 13.9664 2.13497 13.8798 2.13497C13.7933 2.13497 13.7212 2.16381 13.6635 2.22151Z" fill="#667185"/>
</svg>
