<svg width="24" height="24" viewBox="0 0 24 24" fill="none" xmlns="http://www.w3.org/2000/svg">
<mask id="mask0_148_4313" style="mask-type:alpha" maskUnits="userSpaceOnUse" x="0" y="0" width="24" height="24">
<rect width="24" height="24" fill="#D9D9D9"/>
</mask>
<g mask="url(#mask0_148_4313)">
<path d="M19 8.50003C19.2833 8.50003 19.5208 8.40419 19.7125 8.21253C19.9041 8.02086 20 7.78336 20 7.50003C20 7.21669 19.9041 6.97919 19.7125 6.78753C19.5208 6.59586 19.2833 6.50003 19 6.50003C18.7166 6.50003 18.4791 6.59586 18.2875 6.78753C18.0958 6.97919 18 7.21669 18 7.50003C18 7.78336 18.0958 8.02086 18.2875 8.21253C18.4791 8.40419 18.7166 8.50003 19 8.50003ZM18.9993 10C18.2908 10 17.6971 9.76064 17.2183 9.2819C16.7394 8.80318 16.5 8.20998 16.5 7.5023C16.5 6.8085 16.7394 6.21801 17.2181 5.73083C17.6968 5.24366 18.29 5.00008 18.9977 5.00008C19.6915 5.00008 20.282 5.24319 20.7692 5.72943C21.2564 6.21566 21.5 6.80609 21.5 7.5007C21.5 8.20922 21.2568 8.8029 20.7706 9.28175C20.2843 9.76059 19.6939 10 18.9993 10ZM12 7.50003C12.4166 7.50003 12.7708 7.35836 13.0625 7.07503C13.3541 6.79169 13.5 6.43336 13.5 6.00003C13.5 5.58336 13.3541 5.22919 13.0625 4.93753C12.7708 4.64586 12.4166 4.50003 12 4.50003C11.5666 4.50003 11.2083 4.64586 10.925 4.93753C10.6416 5.22919 10.5 5.58336 10.5 6.00003C10.5 6.43336 10.6416 6.79169 10.925 7.07503C11.2083 7.35836 11.5666 7.50003 12 7.50003ZM12.0006 9C11.1579 9 10.4471 8.71102 9.86828 8.13305C9.28942 7.55509 9 6.84512 9 6.00315C9 5.17545 9.28898 4.46801 9.86695 3.88083C10.4449 3.29366 11.1549 3.00008 11.9969 3.00008C12.8246 3.00008 13.532 3.29288 14.1192 3.87848C14.7064 4.46406 15 5.17105 15 5.99945C15 6.84214 14.7072 7.5529 14.1216 8.13175C13.536 8.71059 12.829 9 12.0006 9ZM7.73073 13.375C7.73073 13.9263 8.0038 14.5481 8.54995 15.2404C9.09612 15.9327 10.1852 17.0199 11.8173 18.502L12 18.6654L12.2019 18.4731C13.7686 17.0564 14.8381 15.9942 15.4106 15.2863C15.983 14.5784 16.2692 13.9413 16.2692 13.375C16.2692 12.9166 16.1183 12.528 15.8166 12.2091C15.5148 11.8902 15.1426 11.7308 14.7 11.7308C14.4275 11.7308 14.1697 11.7904 13.9264 11.9096C13.6831 12.0288 13.4788 12.1929 13.3134 12.4019L12.2 13.7308H11.7846L10.6615 12.4019C10.4961 12.1929 10.2933 12.0288 10.0529 11.9096C9.81249 11.7904 9.56153 11.7308 9.29998 11.7308C8.83724 11.7308 8.46002 11.8902 8.1683 12.2091C7.87658 12.528 7.73073 12.9166 7.73073 13.375ZM6.23075 13.375C6.23075 12.5558 6.51953 11.8269 7.0971 11.1885C7.67467 10.55 8.40896 10.2308 9.29998 10.2308C9.80383 10.2308 10.2804 10.3474 10.7298 10.5808C11.1791 10.8141 11.5609 11.1244 11.875 11.5116L12 11.6558L12.125 11.502C12.4455 11.1212 12.8263 10.8141 13.2673 10.5808C13.7083 10.3474 14.1859 10.2308 14.7 10.2308C15.5846 10.2308 16.3173 10.553 16.898 11.1974C17.4788 11.8417 17.7692 12.5676 17.7692 13.375C17.7692 14.2071 17.4564 15.041 16.8307 15.8769C16.2051 16.7128 14.9551 17.9878 13.0808 19.7019L12 20.6923L10.9385 19.7308C9.01793 17.9744 7.75319 16.6856 7.14423 15.8644C6.53524 15.0433 6.23075 14.2135 6.23075 13.375ZM4.99998 8.50003C5.28331 8.50003 5.52081 8.40419 5.71248 8.21253C5.90414 8.02086 5.99998 7.78336 5.99998 7.50003C5.99998 7.21669 5.90414 6.97919 5.71248 6.78753C5.52081 6.59586 5.28331 6.50003 4.99998 6.50003C4.71664 6.50003 4.47914 6.59586 4.28748 6.78753C4.09581 6.97919 3.99998 7.21669 3.99998 7.50003C3.99998 7.78336 4.09581 8.02086 4.28748 8.21253C4.47914 8.40419 4.71664 8.50003 4.99998 8.50003ZM12.075 21.5V20H20V13.3077C20 13.2244 19.9695 13.1523 19.9086 13.0914C19.8477 13.0305 19.7756 13 19.6923 13H17.0885V11.5H19.6923C20.1894 11.5 20.6149 11.677 20.9689 12.0311C21.3229 12.3851 21.5 12.8106 21.5 13.3077V20.5955C21.5 20.8536 21.4133 21.0689 21.2401 21.2413C21.0668 21.4137 20.8522 21.5 20.5961 21.5H12.075ZM3.99998 20H12.075V21.5H3.40385C3.14777 21.5 2.93311 21.4134 2.75988 21.2401C2.58663 21.0669 2.5 20.8522 2.5 20.5961V13.3109C2.5 12.8101 2.67324 12.3831 3.01973 12.0299C3.36619 11.6766 3.79552 11.5 4.3077 11.5H6.9115V13H4.3077C4.21795 13 4.14423 13.0305 4.08653 13.0914C4.02883 13.1523 3.99998 13.2244 3.99998 13.3077V20ZM4.9993 10C4.29078 10 3.69711 9.76064 3.21827 9.2819C2.73942 8.80318 2.5 8.20998 2.5 7.5023C2.5 6.8085 2.73937 6.21801 3.2181 5.73083C3.69683 5.24366 4.29004 5.00008 4.99773 5.00008C5.69153 5.00008 6.28201 5.24319 6.76918 5.72943C7.25636 6.21566 7.49995 6.80609 7.49995 7.5007C7.49995 8.20922 7.25683 8.8029 6.77058 9.28175C6.28434 9.76059 5.69392 10 4.9993 10Z" fill="#667185"/>
</g>
</svg>
