<svg width="120" height="120" viewBox="0 0 120 120" fill="none" xmlns="http://www.w3.org/2000/svg">
<path d="M45 10C31.9 10 21.25 20.65 21.25 33.75C21.25 46.6 31.3 57 44.4 57.45C44.8 57.4 45.2 57.4 45.5 57.45C45.6 57.45 45.65 57.45 45.75 57.45C45.8 57.45 45.8 57.45 45.85 57.45C58.65 57 68.7 46.6 68.75 33.75C68.75 20.65 58.1 10 45 10Z" fill="#8F2802"/>
<path d="M70.4 70.7499C56.45 61.4499 33.7 61.4499 19.65 70.7499C13.3 74.9999 9.79999 80.7499 9.79999 86.8999C9.79999 93.0499 13.3 98.7499 19.6 102.95C26.6 107.65 35.8 110 45 110C54.2 110 63.4 107.65 70.4 102.95C76.7 98.6999 80.2 92.9999 80.2 86.7999C80.15 80.6499 76.7 74.9499 70.4 70.7499Z" fill="#8F2802"/>
<path d="M99.95 36.7C100.75 46.4 93.85 54.9 84.3 56.05C84.25 56.05 84.25 56.05 84.2 56.05H84.05C83.75 56.05 83.45 56.05 83.2 56.15C78.35 56.4 73.9 54.85 70.55 52C75.7 47.4 78.65 40.5 78.05 33C77.7 28.95 76.3 25.25 74.2 22.1C76.1 21.15 78.3 20.55 80.55 20.35C90.35 19.5 99.1 26.8 99.95 36.7Z" fill="#8F2802"/>
<path d="M109.95 82.95C109.55 87.8 106.45 92 101.25 94.85C96.25 97.6 89.95 98.9 83.7 98.75C87.3 95.5 89.4 91.45 89.8 87.15C90.3 80.95 87.35 75 81.45 70.25C78.1 67.6 74.2 65.5 69.95 63.95C81 60.75 94.9 62.9 103.45 69.8C108.05 73.5 110.4 78.15 109.95 82.95Z" fill="#8F2802"/>
</svg>
