<svg width="14" height="14" viewBox="0 0 14 14" fill="none" xmlns="http://www.w3.org/2000/svg">
<path fill-rule="evenodd" clip-rule="evenodd" d="M8.74999 1.16675H2.33332V7.58343H3.49999V2.33342H8.26582L10.5 4.56757V7.58343H11.6666V4.08342L8.74999 1.16675ZM11.5296 10.5143C11.4553 10.4582 11.376 10.409 11.2928 10.3673C11.2082 10.3253 11.0367 10.2506 10.7783 10.1433C10.5181 10.0365 10.353 9.95601 10.2848 9.90237C10.2165 9.84866 10.1821 9.77459 10.1821 9.68066C10.1821 9.57216 10.223 9.48234 10.3035 9.41116C10.3805 9.34584 10.4942 9.31259 10.6424 9.31259C10.7725 9.31259 10.8973 9.32659 11.0169 9.35459C11.1359 9.38316 11.315 9.44034 11.5518 9.52784L11.7105 8.88499C11.308 8.75784 10.9352 8.69484 10.5928 8.69484C10.118 8.69484 9.77672 8.84066 9.56962 9.13234C9.43372 9.32019 9.36662 9.53834 9.36662 9.78741C9.36662 10.0756 9.4693 10.2967 9.67522 10.4501C9.74755 10.5043 9.82747 10.5528 9.9138 10.5959C10.0007 10.6385 10.1495 10.7038 10.36 10.7913C10.6453 10.9086 10.8244 10.9943 10.8967 11.0509C10.969 11.1069 11.0058 11.1851 11.0058 11.2854C11.0058 11.398 10.9685 11.4925 10.8944 11.5701C10.8086 11.6588 10.675 11.7031 10.4942 11.7031C10.2154 11.7031 9.87587 11.6197 9.47572 11.4511L9.36137 12.1237C9.73585 12.2555 10.1273 12.3214 10.5356 12.3214C10.9282 12.3214 11.2327 12.2398 11.4503 12.077C11.7064 11.8839 11.8335 11.5993 11.8335 11.2242C11.8335 10.9057 11.7326 10.6694 11.5296 10.5143ZM4.90401 8.7565L4.07801 9.89865L3.26251 8.7565H2.34494L3.57634 10.4622L2.28076 12.26H3.21236L4.03894 11.0904L4.86959 12.26H5.82101L4.53359 10.482L5.80644 8.7565H4.90401ZM6.49949 8.7565V12.26H8.79374V11.6417H7.28874V8.7565H6.49949Z" fill="#667185"/>
</svg>
